<svg width="24" height="24" viewBox="0 0 24 24" fill="none" xmlns="http://www.w3.org/2000/svg">
<path d="M3 15V13H11V15H3ZM3 19V17H11V19H3ZM3 11V9H11V11H3ZM3 7V5H11V7H3ZM15 19C14.45 19 13.9792 18.8042 13.5875 18.4125C13.1958 18.0208 13 17.55 13 17V7C13 6.45 13.1958 5.97917 13.5875 5.5875C13.9792 5.19583 14.45 5 15 5H19C19.55 5 20.0208 5.19583 20.4125 5.5875C20.8042 5.97917 21 6.45 21 7V17C21 17.55 20.8042 18.0208 20.4125 18.4125C20.0208 18.8042 19.55 19 19 19H15ZM15 17H19V7H15V17Z" fill="white"/>
</svg>
